<?xml version="1.0" standalone="no"?>
<!DOCTYPE svg PUBLIC "-//W3C//DTD SVG 20010904//EN"
 "http://www.w3.org/TR/2001/REC-SVG-20010904/DTD/svg10.dtd">
<svg version="1.0" xmlns="http://www.w3.org/2000/svg"
 width="700.000000pt" height="700.000000pt" viewBox="0 0 700.000000 700.000000"
 preserveAspectRatio="xMidYMid meet">
<metadata>
Created by potrace 1.14, written by Peter Selinger 2001-2017
</metadata>
<g transform="translate(0.000000,700.000000) scale(0.100000,-0.100000)"
fill="#000000" stroke="none">
<path d="M3389 6681 c-88 -55 -85 -27 -80 -666 2 -315 8 -571 13 -585 12 -32
55 -78 90 -96 39 -20 122 -18 168 6 45 23 73 60 88 114 11 38 7 1051 -4 1124
-6 40 -57 100 -101 118 -55 24 -123 18 -174 -15z"/>
<path d="M2261 6462 c-56 -28 -94 -83 -99 -145 -4 -50 6 -78 206 -561 118
-286 220 -519 234 -533 35 -38 77 -56 133 -57 61 0 104 22 149 77 27 34 31 46
30 100 0 58 -14 96 -203 552 -112 270 -213 502 -223 518 -44 62 -155 86 -227
49z"/>
<path d="M1287 5805 c-76 -26 -117 -88 -117 -175 0 -28 6 -63 14 -78 21 -38
775 -787 811 -805 69 -33 137 -28 198 15 59 42 87 161 53 226 -8 15 -191 203
-408 419 -332 330 -399 393 -433 402 -51 14 -71 13 -118 -4z"/>
<path d="M3379 4865 c-36 -20 -51 -59 -57 -150 -5 -100 9 -156 49 -189 27 -23
40 -26 105 -26 135 0 164 34 164 195 0 103 -12 141 -52 169 -29 21 -172 21
-209 1z"/>
<path d="M615 4821 c-87 -54 -119 -151 -78 -238 24 -52 65 -78 218 -142 612
-255 844 -350 872 -355 109 -24 231 98 207 207 -21 100 -47 118 -384 257 -162
67 -386 160 -497 206 -222 93 -277 103 -338 65z"/>
<path d="M3400 4258 c-85 -44 -80 6 -80 -833 0 -840 -5 -788 81 -833 84 -44
193 -13 225 64 12 27 14 165 14 771 0 683 -1 741 -18 773 -20 42 -89 80 -142
80 -20 0 -56 -10 -80 -22z"/>
<path d="M875 3670 c-331 -3 -476 -8 -490 -17 -125 -72 -127 -253 -4 -323 l44
-24 559 3 c334 2 570 7 585 12 33 13 78 56 97 91 20 39 18 122 -6 168 -37 73
-106 101 -240 97 -41 -1 -286 -4 -545 -7z"/>
<path d="M1120 2715 c-272 -113 -506 -210 -519 -217 -41 -22 -81 -95 -81 -149
0 -84 32 -136 105 -170 79 -37 45 -48 789 260 186 77 350 150 363 163 38 35
56 78 56 133 0 80 -40 138 -115 170 -21 8 -52 15 -70 15 -20 0 -234 -84 -528
-205z"/>
<path d="M4876 2269 c-108 -25 -167 -147 -122 -252 8 -18 185 -202 407 -423
376 -374 396 -392 442 -402 89 -18 176 19 211 91 20 43 21 117 2 160 -17 39
-768 788 -811 810 -43 20 -84 26 -129 16z"/>
<path d="M2005 2241 c-16 -10 -204 -194 -417 -407 -344 -346 -388 -394 -398
-433 -39 -146 104 -274 247 -220 36 13 776 751 809 806 51 86 23 203 -61 250
-52 29 -137 31 -180 4z"/>
<path d="M2676 1825 c-81 -29 -90 -45 -310 -578 -175 -422 -206 -505 -206
-548 0 -190 253 -249 340 -78 33 65 408 973 414 1006 17 78 -48 179 -129 202
-50 14 -61 13 -109 -4z"/>
<path d="M4245 1835 c-5 -2 -22 -6 -37 -9 -63 -14 -127 -102 -128 -175 0 -31
352 -905 416 -1033 52 -104 199 -133 282 -55 36 33 62 91 62 136 0 50 -406
1039 -442 1078 -13 14 -34 31 -48 38 -27 13 -89 25 -105 20z"/>
<path d="M3418 1660 c-45 -24 -75 -64 -86 -116 -4 -21 -5 -287 -2 -591 l5
-551 31 -39 c84 -105 236 -97 302 16 l25 44 -2 560 c-1 338 -6 570 -12 586
-13 33 -55 78 -91 97 -39 20 -126 17 -170 -6z"/>
</g>
</svg>
