<?xml version="1.0" encoding="UTF-8" standalone="no"?>
<!-- Generator: Adobe Illustrator 16.0.0, SVG Export Plug-In . SVG Version: 6.00 Build 0)  -->

<svg
   version="1.1"
   id="Capa_1"
   x="0px"
   y="0px"
   width="163.21899"
   height="163.21899"
   viewBox="0 0 163.21899 163.219"
   enable-background="new 0 0 338.183 165.93"
   xml:space="preserve"
   sodipodi:docname="Logo-Interval-solo.svg"
   inkscape:version="1.2.2 (b0a8486541, 2022-12-01)"
   xmlns:inkscape="http://www.inkscape.org/namespaces/inkscape"
   xmlns:sodipodi="http://sodipodi.sourceforge.net/DTD/sodipodi-0.dtd"
   xmlns="http://www.w3.org/2000/svg"
   xmlns:svg="http://www.w3.org/2000/svg"><defs
   id="defs273" /><sodipodi:namedview
   id="namedview271"
   pagecolor="#ffffff"
   bordercolor="#000000"
   borderopacity="0.25"
   inkscape:showpageshadow="2"
   inkscape:pageopacity="0.0"
   inkscape:pagecheckerboard="true"
   inkscape:deskcolor="#d1d1d1"
   showgrid="false"
   inkscape:zoom="2.9952391"
   inkscape:cx="154.74558"
   inkscape:cy="81.462612"
   inkscape:window-width="1920"
   inkscape:window-height="1011"
   inkscape:window-x="0"
   inkscape:window-y="0"
   inkscape:window-maximized="1"
   inkscape:current-layer="Capa_1" />
<g
   id="g268"
   transform="translate(-2.0409026,-1.405)">
	<g
   id="g62">
		<g
   id="g46">
			<g
   id="g4">
				<path
   fill="#6e6f67"
   d="m 44.317,50.58 c 0.877,0.874 2.049,1.355 3.285,1.358 1.262,10e-4 2.443,-0.489 3.334,-1.382 1.813,-1.832 1.801,-4.8 -0.03,-6.623 L 32.335,25.512 c -0.883,-0.874 -2.049,-1.355 -3.29,-1.359 -1.26,-10e-4 -2.438,0.488 -3.329,1.383 -1.816,1.834 -1.805,4.801 0.021,6.615 z"
   id="path2" />
			</g>
			<g
   id="g8">
				<path
   fill="#348fb0"
   d="m 134.971,140.516 c 1.77,1.76 4.853,1.748 6.614,-0.025 1.813,-1.83 1.801,-4.801 -0.025,-6.617 l -18.574,-18.429 c -0.878,-0.87 -2.047,-1.354 -3.287,-1.356 -1.259,-0.002 -2.443,0.49 -3.337,1.384 -1.808,1.826 -1.797,4.799 0.032,6.611 z"
   id="path6" />
			</g>
			<g
   id="g12">
				<path
   fill="#348fb0"
   d="m 83.979,164.624 c 2.574,-0.014 4.664,-2.122 4.651,-4.694 l -0.097,-26.169 c -0.013,-2.563 -2.103,-4.653 -4.661,-4.661 -1.287,0.006 -2.46,0.496 -3.338,1.386 -0.885,0.886 -1.365,2.063 -1.359,3.311 l 0.104,26.167 c 0.007,2.563 2.106,4.653 4.673,4.659 z"
   id="path10" />
			</g>
			<g
   id="g16">
				<path
   fill="#6e6f67"
   d="m 83.466,36.923 c 1.254,-0.004 2.429,-0.495 3.307,-1.381 0.877,-0.884 1.359,-2.061 1.353,-3.312 L 88.025,6.069 C 88.014,3.503 85.919,1.411 83.358,1.405 82.081,1.41 80.904,1.904 80.027,2.791 79.147,3.679 78.663,4.852 78.673,6.097 l 0.099,26.173 c 0.01,2.561 2.103,4.647 4.659,4.653"
   id="path14" />
			</g>
			<g
   id="g20">
				<path
   fill="#348fb0"
   d="m 44.573,115.756 -18.428,18.578 c -0.878,0.888 -1.361,2.062 -1.357,3.311 0.005,1.247 0.493,2.417 1.381,3.298 1.778,1.768 4.859,1.75 6.62,-0.021 l 18.427,-18.574 c 1.816,-1.832 1.804,-4.801 -0.028,-6.617 -0.877,-0.873 -2.042,-1.353 -3.283,-1.356 -1.26,-0.006 -2.445,0.485 -3.332,1.381"
   id="path18" />
			</g>
			<g
   id="g24">
				<path
   fill="#348fb0"
   d="M 6.739,87.994 32.9,87.889 c 1.253,-0.002 2.431,-0.494 3.307,-1.38 0.881,-0.888 1.364,-2.062 1.358,-3.317 -0.006,-2.564 -2.104,-4.651 -4.668,-4.655 L 6.698,78.638 c -1.249,0.005 -2.423,0.496 -3.303,1.383 -0.877,0.888 -1.362,2.067 -1.354,3.321 0.01,2.56 2.104,4.646 4.669,4.652 z"
   id="path22" />
			</g>
			<g
   id="g28">
				<path
   fill="#6e6f67"
   d="m 66.042,40.421 c 2.383,-0.987 3.521,-3.727 2.535,-6.107 L 58.58,10.131 c -0.725,-1.752 -2.418,-2.886 -4.316,-2.89 -0.614,0 -1.218,0.119 -1.795,0.356 -1.153,0.476 -2.053,1.378 -2.53,2.531 -0.482,1.153 -0.479,2.423 -0.003,3.573 l 9.995,24.186 c 0.727,1.751 2.42,2.885 4.318,2.89 0.614,10e-4 1.214,-0.118 1.793,-0.356"
   id="path26" />
			</g>
			<g
   id="g32">
				<path
   fill="#348fb0"
   d="m 114.827,158.429 c 1.16,-0.476 2.059,-1.374 2.541,-2.527 0.477,-1.154 0.479,-2.429 -10e-4,-3.585 l -9.995,-24.182 c -0.725,-1.75 -2.422,-2.885 -4.316,-2.887 -0.615,-0.002 -1.217,0.117 -1.792,0.352 -1.156,0.482 -2.059,1.38 -2.537,2.535 -0.48,1.152 -0.482,2.426 -0.004,3.587 l 9.996,24.172 c 0.727,1.754 2.421,2.887 4.319,2.891 0.613,0.004 1.215,-0.118 1.789,-0.356"
   id="path30" />
			</g>
			<g
   id="g36">
				<path
   fill="#348fb0"
   d="m 65.989,125.585 c -0.578,-0.236 -1.176,-0.359 -1.787,-0.361 -1.901,-0.004 -3.605,1.129 -4.335,2.888 l -10.028,24.167 c -0.987,2.379 0.148,5.122 2.525,6.108 0.572,0.237 1.175,0.36 1.786,0.36 1.901,0.002 3.605,-1.131 4.337,-2.892 l 10.029,-24.164 c 0.986,-2.378 -0.148,-5.119 -2.527,-6.106"
   id="path34" />
			</g>
			<g
   id="g40">
				<path
   fill="#348fb0"
   d="m 14.34,116.723 24.182,-9.994 c 2.384,-0.987 3.524,-3.727 2.541,-6.108 -0.729,-1.753 -2.419,-2.888 -4.317,-2.894 -0.611,-0.004 -1.215,0.119 -1.791,0.355 l -24.183,9.999 c -2.39,0.984 -3.529,3.726 -2.546,6.114 0.727,1.744 2.42,2.881 4.316,2.885 0.615,0.001 1.223,-0.117 1.798,-0.357"
   id="path38" />
			</g>
			<g
   id="g44">
				<path
   fill="#348fb0"
   d="m 10.806,57.846 24.16,10.027 c 0.573,0.236 1.173,0.358 1.782,0.358 1.904,0.005 3.605,-1.131 4.335,-2.886 0.988,-2.384 -0.144,-5.124 -2.527,-6.115 L 14.388,49.205 c -0.572,-0.238 -1.172,-0.356 -1.78,-0.359 -1.906,-0.005 -3.605,1.127 -4.331,2.883 -0.481,1.159 -0.484,2.426 -0.008,3.581 0.478,1.154 1.378,2.057 2.537,2.536"
   id="path42" />
			</g>
		</g>
		<g
   id="g54">
			<g
   id="g52">
				<g
   id="g50">
					<path
   fill="#348fb0"
   d="m 79.078,66.848 c 0,-1.983 1.674,-3.606 3.721,-3.606 h 0.717 c 2.048,0 3.724,1.623 3.724,3.606 v 36.159 c 0,1.983 -1.675,3.605 -3.724,3.605 h -0.717 c -2.047,0 -3.721,-1.622 -3.721,-3.605 z"
   id="path48" />
				</g>
			</g>
		</g>
		<g
   id="g60">
			<g
   id="g58">
				<path
   fill="#6e6f67"
   d="m 79.194,50.966 c 0,-1.66 1.188,-3.018 2.641,-3.018 h 2.726 c 1.451,0 2.641,1.357 2.641,3.018 V 54.6 c 0,1.659 -1.19,3.016 -2.641,3.016 h -2.726 c -1.452,0 -2.641,-1.357 -2.641,-3.016 z"
   id="path56" />
			</g>
		</g>
	</g>
	
	
</g>
</svg>
