<?xml version="1.0" encoding="UTF-8" standalone="no"?>
<!-- Generator: Adobe Illustrator 16.0.0, SVG Export Plug-In . SVG Version: 6.00 Build 0)  -->

<svg
   version="1.1"
   id="Capa_1"
   x="0px"
   y="0px"
   width="338.183px"
   height="165.93px"
   viewBox="0 0 338.183 165.93"
   enable-background="new 0 0 338.183 165.93"
   xml:space="preserve"
   sodipodi:docname="Logo-Interval-chico-linktree.svg"
   inkscape:version="1.2.2 (b0a8486541, 2022-12-01)"
   xmlns:inkscape="http://www.inkscape.org/namespaces/inkscape"
   xmlns:sodipodi="http://sodipodi.sourceforge.net/DTD/sodipodi-0.dtd"
   xmlns="http://www.w3.org/2000/svg"
   xmlns:svg="http://www.w3.org/2000/svg"><defs
   id="defs273"><rect
     x="104.99605"
     y="5.8413012"
     width="127.62441"
     height="33.206343"
     id="rect493" /><rect
     x="116.06962"
     y="8.831724"
     width="219.74717"
     height="41.323392"
     id="rect487" /></defs><sodipodi:namedview
   id="namedview271"
   pagecolor="#ffffff"
   bordercolor="#000000"
   borderopacity="0.25"
   inkscape:showpageshadow="2"
   inkscape:pageopacity="0.0"
   inkscape:pagecheckerboard="true"
   inkscape:deskcolor="#d1d1d1"
   showgrid="false"
   showguides="true"
   inkscape:zoom="8.4718156"
   inkscape:cx="254.90404"
   inkscape:cy="37.536228"
   inkscape:window-width="1920"
   inkscape:window-height="1011"
   inkscape:window-x="0"
   inkscape:window-y="0"
   inkscape:window-maximized="1"
   inkscape:current-layer="g1263"><sodipodi:guide
     position="-80.461019,164.26068"
     orientation="0,-1"
     id="guide713"
     inkscape:locked="false" /></sodipodi:namedview>
<g
   id="g268"
   transform="translate(0.09650732,0.29473857)"
   style="display:inline">
	<g
   id="g62">
		<g
   id="g46">
			<g
   id="g4">
				<path
   fill="#6e6f67"
   d="m 44.317,50.58 c 0.877,0.874 2.049,1.355 3.285,1.358 1.262,10e-4 2.443,-0.489 3.334,-1.382 1.813,-1.832 1.801,-4.8 -0.03,-6.623 L 32.335,25.512 c -0.883,-0.874 -2.049,-1.355 -3.29,-1.359 -1.26,-10e-4 -2.438,0.488 -3.329,1.383 -1.816,1.834 -1.805,4.801 0.021,6.615 z"
   id="path2" />
			</g>
			<g
   id="g8">
				<path
   fill="#348fb0"
   d="m 134.971,140.516 c 1.77,1.76 4.853,1.748 6.614,-0.025 1.813,-1.83 1.801,-4.801 -0.025,-6.617 l -18.574,-18.429 c -0.878,-0.87 -2.047,-1.354 -3.287,-1.356 -1.259,-0.002 -2.443,0.49 -3.337,1.384 -1.808,1.826 -1.797,4.799 0.032,6.611 z"
   id="path6" />
			</g>
			<g
   id="g12">
				<path
   fill="#348fb0"
   d="m 83.979,164.624 c 2.574,-0.014 4.664,-2.122 4.651,-4.694 l -0.097,-26.169 c -0.013,-2.563 -2.103,-4.653 -4.661,-4.661 -1.287,0.006 -2.46,0.496 -3.338,1.386 -0.885,0.886 -1.365,2.063 -1.359,3.311 l 0.104,26.167 c 0.007,2.563 2.106,4.653 4.673,4.659 z"
   id="path10" />
			</g>
			<g
   id="g16">
				<path
   fill="#6e6f67"
   d="m 83.466,36.923 c 1.254,-0.004 2.429,-0.495 3.307,-1.381 0.877,-0.884 1.359,-2.061 1.353,-3.312 L 88.025,6.069 C 88.014,3.503 85.919,1.411 83.358,1.405 82.081,1.41 80.904,1.904 80.027,2.791 79.147,3.679 78.663,4.852 78.673,6.097 l 0.099,26.173 c 0.01,2.561 2.103,4.647 4.659,4.653"
   id="path14" />
			</g>
			<g
   id="g20">
				<path
   fill="#348fb0"
   d="m 44.573,115.756 -18.428,18.578 c -0.878,0.888 -1.361,2.062 -1.357,3.311 0.005,1.247 0.493,2.417 1.381,3.298 1.778,1.768 4.859,1.75 6.62,-0.021 l 18.427,-18.574 c 1.816,-1.832 1.804,-4.801 -0.028,-6.617 -0.877,-0.873 -2.042,-1.353 -3.283,-1.356 -1.26,-0.006 -2.445,0.485 -3.332,1.381"
   id="path18" />
			</g>
			<g
   id="g24">
				<path
   fill="#348fb0"
   d="M 6.739,87.994 32.9,87.889 c 1.253,-0.002 2.431,-0.494 3.307,-1.38 0.881,-0.888 1.364,-2.062 1.358,-3.317 -0.006,-2.564 -2.104,-4.651 -4.668,-4.655 L 6.698,78.638 c -1.249,0.005 -2.423,0.496 -3.303,1.383 -0.877,0.888 -1.362,2.067 -1.354,3.321 0.01,2.56 2.104,4.646 4.669,4.652 z"
   id="path22" />
			</g>
			<g
   id="g28">
				<path
   fill="#6e6f67"
   d="m 66.042,40.421 c 2.383,-0.987 3.521,-3.727 2.535,-6.107 L 58.58,10.131 c -0.725,-1.752 -2.418,-2.886 -4.316,-2.89 -0.614,0 -1.218,0.119 -1.795,0.356 -1.153,0.476 -2.053,1.378 -2.53,2.531 -0.482,1.153 -0.479,2.423 -0.003,3.573 l 9.995,24.186 c 0.727,1.751 2.42,2.885 4.318,2.89 0.614,10e-4 1.214,-0.118 1.793,-0.356"
   id="path26" />
			</g>
			<g
   id="g32">
				<path
   fill="#348fb0"
   d="m 114.827,158.429 c 1.16,-0.476 2.059,-1.374 2.541,-2.527 0.477,-1.154 0.479,-2.429 -10e-4,-3.585 l -9.995,-24.182 c -0.725,-1.75 -2.422,-2.885 -4.316,-2.887 -0.615,-0.002 -1.217,0.117 -1.792,0.352 -1.156,0.482 -2.059,1.38 -2.537,2.535 -0.48,1.152 -0.482,2.426 -0.004,3.587 l 9.996,24.172 c 0.727,1.754 2.421,2.887 4.319,2.891 0.613,0.004 1.215,-0.118 1.789,-0.356"
   id="path30" />
			</g>
			<g
   id="g36">
				<path
   fill="#348fb0"
   d="m 65.989,125.585 c -0.578,-0.236 -1.176,-0.359 -1.787,-0.361 -1.901,-0.004 -3.605,1.129 -4.335,2.888 l -10.028,24.167 c -0.987,2.379 0.148,5.122 2.525,6.108 0.572,0.237 1.175,0.36 1.786,0.36 1.901,0.002 3.605,-1.131 4.337,-2.892 l 10.029,-24.164 c 0.986,-2.378 -0.148,-5.119 -2.527,-6.106"
   id="path34" />
			</g>
			<g
   id="g40">
				<path
   fill="#348fb0"
   d="m 14.34,116.723 24.182,-9.994 c 2.384,-0.987 3.524,-3.727 2.541,-6.108 -0.729,-1.753 -2.419,-2.888 -4.317,-2.894 -0.611,-0.004 -1.215,0.119 -1.791,0.355 l -24.183,9.999 c -2.39,0.984 -3.529,3.726 -2.546,6.114 0.727,1.744 2.42,2.881 4.316,2.885 0.615,0.001 1.223,-0.117 1.798,-0.357"
   id="path38" />
			</g>
			<g
   id="g44">
				<path
   fill="#348fb0"
   d="m 10.806,57.846 24.16,10.027 c 0.573,0.236 1.173,0.358 1.782,0.358 1.904,0.005 3.605,-1.131 4.335,-2.886 0.988,-2.384 -0.144,-5.124 -2.527,-6.115 L 14.388,49.205 c -0.572,-0.238 -1.172,-0.356 -1.78,-0.359 -1.906,-0.005 -3.605,1.127 -4.331,2.883 -0.481,1.159 -0.484,2.426 -0.008,3.581 0.478,1.154 1.378,2.057 2.537,2.536"
   id="path42" />
			</g>
		</g>
		<g
   id="g54">
			<g
   id="g52">
				<g
   id="g50">
					<path
   fill="#348fb0"
   d="m 79.078,66.848 c 0,-1.983 1.674,-3.606 3.721,-3.606 h 0.717 c 2.048,0 3.724,1.623 3.724,3.606 v 36.159 c 0,1.983 -1.675,3.605 -3.724,3.605 h -0.717 c -2.047,0 -3.721,-1.622 -3.721,-3.605 z"
   id="path48" />
				</g>
			</g>
		</g>
		<g
   id="g60">
			<g
   id="g58">
				<path
   fill="#6e6f67"
   d="m 79.194,50.966 c 0,-1.66 1.188,-3.018 2.641,-3.018 h 2.726 c 1.451,0 2.641,1.357 2.641,3.018 V 54.6 c 0,1.659 -1.19,3.016 -2.641,3.016 h -2.726 c -1.452,0 -2.641,-1.357 -2.641,-3.016 z"
   id="path56" />
			</g>
		</g>
	</g>
	<g
   id="g162">
		<g
   id="g160">
			<g
   id="g82">
				<g
   id="g68">
					<g
   id="g66">
						<path
   fill="#6e6f67"
   d="m 101.933,65.602 v 6.807 c 2.94,-5.258 8.277,-7.424 13.613,-7.501 10.21,0 17.246,6.264 17.246,16.86 v 22.043 h -3.787 V 81.845 c 0,-8.662 -5.338,-13.303 -13.612,-13.225 -7.891,0.077 -13.381,6.032 -13.381,13.921 v 21.27 H 98.22 V 65.602 Z"
   id="path64" />
					</g>
				</g>
				<g
   id="g74">
					<g
   id="g72">
						<path
   fill="#6e6f67"
   d="m 147.487,54.079 v 11.523 h 12.992 v 3.173 h -12.992 v 23.279 c 0,5.182 1.081,8.817 7.035,8.817 1.857,0 3.946,-0.62 5.879,-1.547 l 1.316,3.095 c -2.398,1.158 -4.796,1.932 -7.195,1.932 -8.119,0 -10.747,-4.795 -10.747,-12.297 V 68.775 h -8.122 v -3.173 h 8.122 V 54.467 Z"
   id="path70" />
					</g>
				</g>
				<g
   id="g80">
					<g
   id="g78">
						<path
   fill="#6e6f67"
   d="m 164.833,84.709 c 0,-11.448 8.665,-19.724 19.415,-19.724 10.75,0 20.339,6.573 18.871,21.501 h -34.417 c 0.772,8.973 7.656,14.152 15.546,14.152 5.026,0 10.903,-2.011 13.768,-5.802 l 2.706,2.168 c -3.715,4.873 -10.365,7.347 -16.474,7.347 -10.75,0 -19.415,-7.502 -19.415,-19.642 z m 34.88,-1.55 c -0.076,-9.435 -6.264,-14.694 -15.466,-14.694 -7.89,0 -14.694,5.336 -15.546,14.694 z"
   id="path76" />
					</g>
				</g>
			</g>
			<g
   id="g102">
				<g
   id="g88">
					<g
   id="g86">
						<path
   fill="#6e6f67"
   d="m 134.596,105.616 h -7.401 V 81.847 c 0,-7.364 -4.122,-11.42 -11.604,-11.42 l -0.184,10e-4 c -6.823,0.068 -11.59,5.049 -11.59,12.114 v 23.074 H 96.414 V 63.8 h 7.325 v 3.541 c 3.046,-2.67 7.129,-4.169 11.777,-4.236 11.601,0 19.079,7.326 19.079,18.665 v 23.846 z m -3.788,-3.613 h 0.175 V 81.769 c 0,-9.285 -5.916,-15.052 -15.439,-15.052 -1.81,0.025 -4.499,0.343 -7.053,1.689 2.032,-1.003 4.358,-1.566 6.88,-1.592 h 0.219 c 9.386,0 15.217,5.759 15.217,15.032 v 20.157 z m -30.781,0 h 0.176 v -19.46 c 0,-1.475 0.171,-2.887 0.494,-4.214 l -0.572,1.022 V 67.413 h -0.099 v 34.59 z"
   id="path84" />
					</g>
				</g>
				<g
   id="g94">
					<g
   id="g92">
						<path
   fill="#6e6f67"
   d="m 154.521,106.156 c -8.331,0 -12.555,-4.742 -12.555,-14.1 V 70.584 h -8.121 V 63.8 h 8.121 V 52.842 l 7.327,-0.762 V 63.8 h 12.989 v 6.785 h -12.989 v 21.472 c 0,5.372 1.221,7.01 5.228,7.01 1.448,0 3.259,-0.487 5.097,-1.369 l 1.705,-0.82 2.727,6.419 -1.55,0.75 c -2.937,1.42 -5.549,2.109 -7.979,2.109 z M 145.579,66.97 v 25.086 c 0,5.306 1.314,8.376 4.367,9.701 -4.267,-2.091 -4.267,-7.208 -4.267,-9.701 V 56.089 l -0.101,0.011 v 10.87 z"
   id="path90" />
					</g>
				</g>
				<g
   id="g100">
					<g
   id="g98">
						<path
   fill="#6e6f67"
   d="m 184.244,106.156 c -11.722,0 -19.002,-8.216 -19.002,-21.447 0,-12.876 7.636,-21.527 19.002,-21.527 6.567,0 12.232,2.264 15.959,6.373 3.773,4.164 5.403,10.08 4.712,17.11 l -0.161,1.629 h -33.966 c 1.516,7.262 7.652,10.539 13.456,10.539 4.997,0 10.066,-2.09 12.326,-5.082 l 1.121,-1.482 5.535,4.428 -1.07,1.404 c -3.789,4.97 -10.652,8.055 -17.912,8.055 z m -6.586,-4.877 c 1.923,0.832 4.128,1.265 6.586,1.265 3.29,0 6.526,-0.765 9.293,-2.109 -3.014,1.369 -6.401,2.011 -9.293,2.011 -2.361,-0.001 -4.576,-0.407 -6.586,-1.167 z m -6.865,-19.924 h 27.006 c -0.773,-6.978 -5.724,-11.081 -13.556,-11.081 -6.86,0 -12.061,4.375 -13.45,11.081 z"
   id="path96" />
					</g>
				</g>
			</g>
			<g
   id="g110">
				<g
   id="g108">
					<g
   id="g106">
						<path
   fill="#6e6f67"
   d="m 214.03,65.602 0.152,6.807 c 2.399,-5.181 7.814,-7.191 12.683,-7.191 2.866,-0.079 5.65,0.695 8.201,2.242 l -1.702,3.094 c -2.011,-1.238 -4.255,-1.778 -6.499,-1.778 -7.112,0.076 -12.604,5.801 -12.604,12.761 v 22.275 h -3.792 v -38.21 z"
   id="path104" />
					</g>
				</g>
			</g>
			<g
   id="g118">
				<g
   id="g116">
					<g
   id="g114">
						<path
   fill="#6e6f67"
   d="m 216.069,105.616 h -7.406 V 63.8 h 7.132 l 0.076,3.41 c 2.78,-2.433 6.617,-3.797 10.994,-3.797 l 0.387,-0.005 c 3.059,0 6,0.844 8.747,2.509 l 1.48,0.897 -3.448,6.275 -1.615,-0.995 c -1.632,-1.002 -3.499,-1.51 -5.551,-1.51 -6.046,0.066 -10.796,4.877 -10.796,10.954 z m -3.793,-3.613 h 0.179 V 81.538 c 0,-0.567 0.031,-1.125 0.089,-1.674 l -0.268,-11.761 z m 10.082,-34.295 c -0.997,0.309 -2.036,0.754 -3.016,1.396 0.937,-0.574 1.949,-1.045 3.016,-1.396 z"
   id="path112" />
					</g>
				</g>
			</g>
			<g
   id="g138">
				<g
   id="g124">
					<g
   id="g122">
						<path
   fill="#6e6f67"
   d="m 241.092,65.602 h 4.18 l 13.923,33.799 13.919,-33.799 h 4.179 l -16.013,38.209 h -4.176 z"
   id="path120" />
					</g>
				</g>
				<g
   id="g130">
					<g
   id="g128">
						<path
   fill="#6e6f67"
   d="m 318.688,65.602 c 0,12.762 0,25.445 0,38.209 h -3.791 V 95.69 c -3.713,5.955 -9.435,8.738 -15.622,8.738 -10.675,0 -19.411,-8.043 -19.411,-19.72 0,-11.681 8.736,-19.569 19.411,-19.569 6.188,0 12.452,2.861 15.622,8.817 v -8.354 z m -35.036,19.107 c 0,9.588 6.96,16.007 15.623,16.007 21.269,0 21.269,-31.94 0,-31.94 -8.663,-10e-4 -15.623,6.34 -15.623,15.933 z"
   id="path126" />
					</g>
				</g>
				<g
   id="g136">
					<g
   id="g134">
						<path
   fill="#6e6f67"
   d="m 332.758,49.672 v 54.14 h -3.792 v -54.14 z"
   id="path132" />
					</g>
				</g>
			</g>
			<g
   id="g144">
				<g
   id="g142">
					<path
   fill="#6e6f67"
   d="m 262.482,105.618 h -6.58 L 238.377,63.801 h 8.106 l 12.708,30.857 12.712,-30.857 h 8.101 z m -2.407,-3.613 h 0.002 l 14.494,-34.591 h -0.249 z m -1.77,0 h 0.006 L 244.063,67.414 h -0.254 z"
   id="path140" />
				</g>
			</g>
			<g
   id="g158">
				<g
   id="g150">
					<g
   id="g148">
						<path
   fill="#6e6f67"
   d="m 299.273,106.236 c -12.095,0 -21.217,-9.255 -21.217,-21.527 0,-12.184 9.122,-21.372 21.217,-21.372 5.433,0 10.303,1.907 13.813,5.275 V 63.8 h 7.402 v 41.816 h -7.402 v -4.818 c -3.668,3.538 -8.431,5.438 -13.813,5.438 z m 0,-39.286 c -10.2,0 -17.603,7.469 -17.603,17.759 0,10.214 7.565,17.913 17.603,17.913 1.591,0 3.116,-0.202 4.556,-0.599 -1.408,0.325 -2.928,0.5 -4.556,0.5 -9.935,0 -17.428,-7.657 -17.428,-17.814 0,-10.278 7.328,-17.738 17.428,-17.738 0.823,0 1.616,0.045 2.384,0.131 -0.776,-0.101 -1.573,-0.152 -2.384,-0.152 z m 17.428,35.053 h 0.175 V 87.167 c -0.121,0.971 -0.318,1.935 -0.589,2.877 l 0.414,-0.668 z M 299.273,70.584 c -8.005,0 -13.814,5.94 -13.814,14.125 0,8.228 5.81,14.2 13.814,14.2 9.718,0 14.142,-7.342 14.142,-14.164 0,-6.819 -4.424,-14.161 -14.142,-14.161 z m 17.426,10.603 c 0.069,0.378 0.13,0.758 0.177,1.139 V 67.413 h -0.175 v 13.782 z"
   id="path146" />
					</g>
				</g>
				<g
   id="g156">
					<g
   id="g154">
						<path
   fill="#6e6f67"
   d="m 334.565,105.618 h -7.406 V 47.87 h 7.406 z m -3.792,-3.613 h 0.179 V 51.483 h -0.179 z"
   id="path152" />
					</g>
				</g>
			</g>
		</g>
	</g>
	<g
   id="g266">
		<g
   id="g168">
			<path
   fill="#6e6f67"
   d="m 162.422,127.594 c -1.072,1.072 -2.496,1.608 -3.903,1.608 -3.613,0 -5.495,-2.526 -5.511,-5.419 -0.031,-2.861 1.837,-5.541 5.511,-5.541 1.407,0 2.831,0.536 3.903,1.608 l -0.567,0.487 c -0.917,-0.916 -2.127,-1.359 -3.335,-1.359 -3.124,0 -4.73,2.203 -4.714,4.775 0.03,2.51 1.622,4.683 4.714,4.683 1.208,0 2.434,-0.459 3.351,-1.362 z"
   id="path164" />
			<path
   fill="#6e6f67"
   d="m 158.519,129.533 c -4.013,0 -5.824,-2.888 -5.84,-5.747 -0.019,-1.663 0.558,-3.173 1.623,-4.249 1.05,-1.063 2.508,-1.622 4.217,-1.622 1.569,0 3.038,0.604 4.136,1.703 l 0.251,0.251 -1.068,0.919 -0.216,-0.216 c -0.815,-0.813 -1.917,-1.265 -3.103,-1.265 -1.301,0 -2.397,0.412 -3.17,1.189 -0.791,0.797 -1.222,1.952 -1.214,3.256 0.024,2.007 1.187,4.356 4.385,4.356 1.164,0 2.301,-0.465 3.119,-1.269 l 0.227,-0.222 1.03,0.97 -0.24,0.238 c -1.084,1.086 -2.592,1.708 -4.137,1.708 z m 0,-10.96 c -1.528,0 -2.824,0.494 -3.749,1.428 -0.94,0.95 -1.448,2.293 -1.432,3.779 0.013,2.537 1.621,5.094 5.181,5.094 1.257,0 2.485,-0.462 3.421,-1.279 l -0.072,-0.068 c -0.917,0.791 -2.12,1.239 -3.349,1.239 -3.443,0 -5.014,-2.514 -5.044,-5.007 -0.009,-1.482 0.49,-2.806 1.406,-3.727 0.899,-0.905 2.157,-1.381 3.638,-1.381 1.256,0 2.433,0.438 3.345,1.245 l 0.064,-0.055 c -0.939,-0.819 -2.136,-1.268 -3.409,-1.268 z"
   id="path166" />
		</g>
		<g
   id="g174">
			<path
   fill="#6e6f67"
   d="m 175.612,123.739 c -0.014,2.817 -1.807,5.523 -5.403,5.523 -3.598,0 -5.403,-2.724 -5.403,-5.555 0,-2.877 1.79,-5.512 5.403,-5.512 3.613,0.001 5.416,2.649 5.403,5.544 z m -9.996,-0.016 c 0.016,2.417 1.547,4.773 4.593,4.773 3.06,0 4.606,-2.356 4.606,-4.773 0,-2.48 -1.529,-4.76 -4.606,-4.76 -3.077,0.001 -4.607,2.235 -4.593,4.76 z"
   id="path170" />
			<path
   fill="#6e6f67"
   d="m 170.208,129.592 c -3.938,0 -5.732,-3.051 -5.732,-5.884 0,-2.906 1.772,-5.84 5.732,-5.84 1.659,0 3.073,0.542 4.096,1.568 1.063,1.07 1.646,2.6 1.636,4.303 -0.014,2.819 -1.813,5.853 -5.732,5.853 z m 0,-11.066 c -3.504,0 -5.073,2.602 -5.073,5.182 0,2.517 1.587,5.227 5.073,5.227 3.485,0 5.06,-2.611 5.075,-5.197 0.006,-1.531 -0.508,-2.893 -1.448,-3.837 -0.895,-0.9 -2.148,-1.375 -3.627,-1.375 z m 0,10.302 c -3.359,0 -4.906,-2.645 -4.922,-5.104 -0.009,-1.494 0.491,-2.824 1.408,-3.748 0.874,-0.878 2.088,-1.34 3.514,-1.34 3.409,0 4.937,2.553 4.937,5.088 0,2.457 -1.544,5.104 -4.937,5.104 z m 0,-9.536 c -1.248,0 -2.3,0.398 -3.047,1.148 -0.792,0.797 -1.224,1.963 -1.216,3.281 0.013,2.142 1.354,4.447 4.263,4.447 2.939,0 4.278,-2.304 4.278,-4.445 0.001,-2.205 -1.322,-4.431 -4.278,-4.431 z"
   id="path172" />
		</g>
		<g
   id="g180">
			<path
   fill="#6e6f67"
   d="m 178.852,118.367 7.21,8.86 v -8.86 h 0.811 v 10.714 h -0.318 l -7.228,-8.847 v 8.847 h -0.824 v -10.714 z"
   id="path176" />
			<path
   fill="#6e6f67"
   d="m 187.201,129.409 h -0.804 l -6.742,-8.25 v 8.25 h -1.48 v -11.372 h 0.835 l 6.725,8.263 v -8.263 h 1.467 v 11.372 z m -8.37,-0.659 h 0.168 v -9.44 l 7.546,9.236 v -9.85 h -0.153 v 9.459 l -7.561,-9.293 z"
   id="path178" />
		</g>
		<g
   id="g186">
			<path
   fill="#6e6f67"
   d="m 197.294,120.432 c -0.781,-1.255 -2.034,-1.439 -3.247,-1.453 -1.253,0 -3.242,0.459 -3.242,2.174 0,1.36 1.467,1.683 3.273,2.019 2.067,0.396 4.211,0.766 4.211,3.076 -0.016,2.419 -2.448,3.001 -4.242,3.001 -1.667,0 -3.564,-0.689 -4.391,-2.327 l 0.736,-0.365 c 0.656,1.3 2.339,1.94 3.654,1.94 1.319,0 3.414,-0.367 3.414,-2.263 0.018,-1.608 -1.759,-1.959 -3.521,-2.297 -1.958,-0.383 -3.964,-0.781 -3.964,-2.755 -0.045,-2.266 2.313,-2.969 4.07,-2.969 1.533,0 2.864,0.245 3.919,1.82 z"
   id="path182" />
			<path
   fill="#6e6f67"
   d="m 194.047,129.578 c -1.651,0 -3.752,-0.659 -4.686,-2.507 l -0.15,-0.295 1.327,-0.66 0.147,0.291 c 0.585,1.156 2.134,1.762 3.361,1.762 0.929,0 3.086,-0.188 3.086,-1.935 0.012,-1.253 -1.28,-1.595 -3.255,-1.974 -1.983,-0.387 -4.229,-0.826 -4.229,-3.078 -0.018,-0.814 0.249,-1.51 0.787,-2.06 0.762,-0.775 2.109,-1.237 3.611,-1.237 1.728,0 3.1,0.334 4.193,1.966 l 0.194,0.29 -1.25,0.738 -0.171,-0.274 c -0.656,-1.055 -1.663,-1.282 -2.971,-1.298 -0.293,0 -2.91,0.053 -2.91,1.846 0,1.057 1.137,1.347 3.008,1.694 l 0.112,0.023 c 2.044,0.391 4.364,0.835 4.364,3.377 -0.009,2.088 -1.717,3.331 -4.568,3.331 z m -3.931,-2.517 c 0.866,1.362 2.568,1.857 3.932,1.857 1.172,0 3.897,-0.26 3.911,-2.673 0,-1.861 -1.447,-2.271 -3.829,-2.729 l -0.113,-0.02 c -1.738,-0.327 -3.539,-0.661 -3.539,-2.344 0,-1.729 1.793,-2.502 3.57,-2.502 1.176,0.012 2.472,0.19 3.344,1.34 l 0.098,-0.056 c -0.897,-1.15 -1.996,-1.394 -3.441,-1.394 -1.326,0 -2.502,0.391 -3.14,1.042 -0.411,0.419 -0.613,0.956 -0.603,1.591 0,1.6 1.468,2.003 3.699,2.44 1.782,0.34 3.807,0.727 3.785,2.621 0,1.622 -1.398,2.592 -3.742,2.592 -1.29,0 -2.967,-0.579 -3.784,-1.838 z"
   id="path184" />
		</g>
		<g
   id="g192">
			<path
   fill="#6e6f67"
   d="m 203.998,119.115 h -3.874 v -0.734 h 8.569 v 0.734 h -3.872 v 9.966 h -0.823 z"
   id="path188" />
			<path
   fill="#6e6f67"
   d="m 205.149,129.409 h -1.482 v -9.963 h -3.872 v -1.394 h 9.229 v 1.394 h -3.875 z m -0.823,-0.659 h 0.167 v -9.963 h 3.872 v -0.078 h -7.913 v 0.078 h 3.874 z"
   id="path190" />
		</g>
		<g
   id="g198">
			<path
   fill="#6e6f67"
   d="m 219.729,129.081 h -1.086 l -3.705,-4.058 h -2.925 v 4.058 h -0.827 v -10.714 c 1.579,0 3.14,0 4.715,0 2.326,0 3.506,1.667 3.521,3.336 0.015,1.745 -1.133,3.274 -3.477,3.274 z m -7.716,-4.836 h 3.797 c 1.867,0 2.692,-1.058 2.708,-2.558 0.016,-1.255 -0.841,-2.557 -2.617,-2.557 h -3.888 z"
   id="path194" />
			<path
   fill="#6e6f67"
   d="m 220.481,129.409 h -1.984 l -3.703,-4.055 h -2.451 v 4.055 h -1.484 v -11.372 h 5.043 c 2.507,0 3.836,1.842 3.85,3.662 0.01,1.003 -0.336,1.91 -0.976,2.558 -0.54,0.543 -1.263,0.884 -2.12,1.004 z m -1.694,-0.659 h 0.19 l -3.783,-4.102 h 0.752 c 0.989,0 1.805,-0.295 2.361,-0.856 0.515,-0.519 0.792,-1.261 0.784,-2.087 -0.012,-1.449 -1.016,-3.009 -3.19,-3.009 h -4.385 v 10.054 h 0.169 v -4.055 h 3.398 z m -2.977,-4.177 h -4.125 v -5.771 h 4.216 c 0.867,0 1.607,0.285 2.144,0.827 0.521,0.529 0.813,1.281 0.802,2.062 -0.017,1.831 -1.123,2.882 -3.037,2.882 z m -3.468,-0.659 h 3.468 c 1.948,0 2.368,-1.212 2.378,-2.23 0.008,-0.608 -0.216,-1.185 -0.614,-1.589 -0.407,-0.414 -0.986,-0.634 -1.673,-0.634 h -3.559 z"
   id="path196" />
		</g>
		<g
   id="g204">
			<path
   fill="#6e6f67"
   d="m 230.543,118.367 v 6.656 c 0,5.604 -8.203,5.617 -8.203,0 v -6.656 h 0.813 v 6.656 c 0,4.608 6.579,4.593 6.579,0 v -6.656 z"
   id="path200" />
			<path
   fill="#6e6f67"
   d="m 226.438,129.56 c -2.199,0 -4.426,-1.559 -4.426,-4.537 v -6.986 h 1.471 v 6.986 c 0,2.146 1.532,3.12 2.957,3.12 1.428,0 2.965,-0.975 2.965,-3.12 v -6.986 h 1.469 v 6.986 c 0,2.979 -2.231,4.537 -4.436,4.537 z m -3.77,-10.864 v 6.327 c 0,2.664 1.954,3.878 3.77,3.878 1.818,0 3.776,-1.214 3.776,-3.878 v -6.327 h -0.151 v 6.327 c 0,2.483 -1.822,3.779 -3.623,3.779 -1.798,0 -3.616,-1.296 -3.616,-3.779 v -6.327 z"
   id="path202" />
		</g>
		<g
   id="g210">
			<path
   fill="#6e6f67"
   d="m 242.558,127.594 c -1.073,1.072 -2.495,1.608 -3.903,1.608 -3.614,0 -5.495,-2.526 -5.511,-5.419 -0.03,-2.861 1.837,-5.541 5.511,-5.541 1.408,0 2.83,0.536 3.903,1.608 l -0.567,0.487 c -0.917,-0.916 -2.128,-1.359 -3.336,-1.359 -3.123,0 -4.729,2.203 -4.716,4.775 0.031,2.51 1.624,4.683 4.716,4.683 1.208,0 2.433,-0.459 3.35,-1.362 z"
   id="path206" />
			<path
   fill="#6e6f67"
   d="m 238.655,129.533 c -4.013,0 -5.825,-2.888 -5.841,-5.747 -0.018,-1.663 0.558,-3.173 1.624,-4.249 1.05,-1.063 2.509,-1.622 4.217,-1.622 v 0 c 1.569,0 3.036,0.604 4.136,1.703 l 0.251,0.251 -1.066,0.919 -0.218,-0.216 c -0.816,-0.813 -1.918,-1.265 -3.103,-1.265 -1.3,0 -2.396,0.41 -3.169,1.189 -0.793,0.797 -1.225,1.952 -1.217,3.256 0.025,2.007 1.188,4.356 4.386,4.356 1.163,0 2.302,-0.465 3.118,-1.269 l 0.228,-0.222 1.031,0.97 -0.241,0.238 c -1.1,1.102 -2.569,1.708 -4.136,1.708 z m 0,-10.96 c -1.529,0 -2.825,0.494 -3.748,1.428 -0.94,0.95 -1.449,2.293 -1.434,3.779 0.016,2.535 1.622,5.094 5.182,5.094 1.276,0 2.479,-0.452 3.423,-1.279 l -0.073,-0.068 c -0.917,0.791 -2.12,1.239 -3.35,1.239 -3.441,0 -5.015,-2.514 -5.044,-5.007 -0.008,-1.484 0.491,-2.808 1.406,-3.727 0.899,-0.905 2.157,-1.381 3.638,-1.381 1.257,0 2.433,0.438 3.346,1.245 l 0.063,-0.055 c -0.94,-0.819 -2.139,-1.268 -3.409,-1.268 z"
   id="path208" />
		</g>
		<g
   id="g216">
			<path
   fill="#6e6f67"
   d="m 248.295,119.115 h -3.874 v -0.734 h 8.573 v 0.734 h -3.874 v 9.966 h -0.825 z"
   id="path212" />
			<path
   fill="#6e6f67"
   d="m 249.452,129.409 h -1.486 v -9.963 h -3.873 v -1.394 h 9.231 v 1.394 h -3.872 z m -0.828,-0.659 h 0.169 v -9.963 h 3.874 v -0.078 h -7.915 v 0.078 h 3.872 z"
   id="path214" />
		</g>
		<g
   id="g222">
			<path
   fill="#6e6f67"
   d="m 255.484,129.081 v -10.714 h 0.813 v 10.714 z"
   id="path218" />
			<path
   fill="#6e6f67"
   d="m 256.626,129.409 h -1.471 v -11.372 h 1.471 z m -0.812,-0.659 h 0.155 v -10.054 h -0.155 z"
   id="path220" />
		</g>
		<g
   id="g228">
			<path
   fill="#6e6f67"
   d="m 268.464,118.367 -4.408,10.744 h -0.888 l -4.409,-10.744 h 0.89 l 3.964,9.794 3.964,-9.794 z"
   id="path224" />
			<path
   fill="#6e6f67"
   d="m 264.278,129.44 h -1.331 l -4.679,-11.403 h 1.603 l 3.742,9.246 3.74,-9.246 h 1.603 z m -0.563,-0.659 h 0.119 l 4.139,-10.085 h -0.176 z m -0.326,0 h 0.119 l -4.08,-10.085 h -0.177 z"
   id="path226" />
		</g>
		<g
   id="g234">
			<path
   fill="#6e6f67"
   d="m 271.616,123.309 h 6.275 v 0.75 h -6.275 v 4.225 h 6.764 v 0.797 h -7.578 v -10.714 h 7.395 v 0.779 h -6.58 v 4.163 z"
   id="path230" />
			<path
   fill="#6e6f67"
   d="m 278.708,129.409 h -8.234 v -11.372 h 8.052 v 1.439 h -6.581 v 3.503 h 6.275 v 1.409 h -6.275 v 3.567 h 6.764 v 1.454 z m -7.577,-0.659 h 6.919 v -0.138 h -6.765 v -4.881 h 6.275 v -0.093 h -6.275 v -4.82 h 6.58 v -0.122 h -6.734 z"
   id="path232" />
		</g>
		<g
   id="g240">
			<path
   fill="#6e6f67"
   d="m 286.257,129.081 v -10.714 h 0.813 v 10.714 z"
   id="path236" />
			<path
   fill="#6e6f67"
   d="m 287.4,129.409 h -1.471 v -11.372 h 1.471 z m -0.813,-0.659 h 0.153 v -10.054 h -0.153 z"
   id="path238" />
		</g>
		<g
   id="g246">
			<path
   fill="#6e6f67"
   d="m 299.694,119.56 -4.101,6.275 h -0.276 l -4.133,-6.275 v 9.521 h -0.825 v -10.714 c 0.398,0 0.583,0 0.981,0 l 4.101,6.245 4.058,-6.245 h 1.006 v 10.714 h -0.811 z"
   id="path242" />
			<path
   fill="#6e6f67"
   d="m 300.834,129.409 h -1.469 v -8.741 l -3.594,5.496 h -0.634 l -3.625,-5.504 v 8.749 h -1.482 v -11.372 h 1.486 l 3.922,5.971 3.878,-5.971 h 1.518 z m -0.809,-0.659 h 0.151 v -10.054 h -0.151 z m -9.336,0 h 0.165 v -10.054 h -0.165 z m 0.32,-10.054 4.445,6.751 4.411,-6.751 h -0.188 l -4.234,6.518 -4.282,-6.518 z"
   id="path244" />
		</g>
		<g
   id="g252">
			<path
   fill="#6e6f67"
   d="m 312.305,129.081 -1.179,-2.633 h -6.398 l -1.163,2.633 h -0.889 l 4.807,-10.714 h 0.904 l 4.805,10.714 z m -1.502,-3.399 -2.877,-6.521 -2.875,6.521 z"
   id="path248" />
			<path
   fill="#6e6f67"
   d="m 313.701,129.409 h -1.608 l -1.18,-2.631 h -5.969 l -1.164,2.631 h -1.612 l 5.104,-11.372 h 1.328 z m -1.182,-0.659 h 0.163 l -4.509,-10.054 h -0.092 l 3.228,7.314 h -6.764 l 3.228,-7.314 h -0.076 l -4.511,10.054 h 0.165 l 1.163,-2.63 h 6.824 z m -6.963,-3.396 h 4.742 l -2.372,-5.377 z"
   id="path250" />
		</g>
		<g
   id="g258">
			<path
   fill="#6e6f67"
   d="m 323.428,120.339 c -0.934,-0.916 -2.234,-1.375 -3.444,-1.375 -3.136,0 -4.744,2.297 -4.729,4.775 0,2.525 1.607,4.698 4.729,4.698 1.148,0 2.343,-0.398 3.261,-1.241 v -2.998 h -3.734 v -0.719 h 4.517 v 4.008 c -1.119,1.117 -2.452,1.731 -4.043,1.731 -3.641,0 -5.523,-2.542 -5.523,-5.464 -0.016,-3.354 2.264,-5.541 5.523,-5.541 1.408,0 2.831,0.534 3.919,1.606 z"
   id="path254" />
			<path
   fill="#6e6f67"
   d="m 319.984,129.547 c -4.043,0 -5.854,-2.909 -5.854,-5.792 -0.008,-1.71 0.548,-3.175 1.606,-4.237 1.064,-1.068 2.531,-1.632 4.247,-1.632 1.563,0 3.037,0.604 4.15,1.7 l 0.225,0.222 -0.919,1.006 -0.244,-0.239 c -0.816,-0.802 -2.017,-1.282 -3.212,-1.282 -1.288,0 -2.382,0.416 -3.165,1.205 -0.805,0.81 -1.243,1.96 -1.233,3.238 0,2.019 1.151,4.374 4.398,4.374 1.1,0 2.134,-0.377 2.932,-1.062 v -2.52 h -3.734 v -1.377 h 5.175 v 4.474 l -0.096,0.096 c -1.215,1.211 -2.652,1.826 -4.276,1.826 z m 0,-11.005 c -1.535,0 -2.843,0.5 -3.781,1.439 -0.933,0.938 -1.42,2.24 -1.414,3.771 0,2.557 1.606,5.135 5.195,5.135 1.422,0 2.637,-0.503 3.713,-1.538 v -3.542 h -3.858 v 0.063 h 3.734 v 3.472 l -0.105,0.097 c -0.933,0.857 -2.17,1.327 -3.483,1.327 -3.493,0 -5.058,-2.523 -5.058,-5.026 -0.012,-1.455 0.496,-2.772 1.425,-3.707 0.909,-0.915 2.164,-1.396 3.633,-1.396 1.267,0 2.495,0.446 3.424,1.237 l 0.03,-0.035 c -0.958,-0.838 -2.173,-1.297 -3.455,-1.297 z"
   id="path256" />
		</g>
		<g
   id="g264">
			<path
   fill="#6e6f67"
   d="m 327.987,123.309 h 6.275 v 0.75 h -6.275 v 4.225 h 6.767 v 0.797 h -7.577 v -10.714 h 7.395 v 0.779 h -6.584 v 4.163 z"
   id="path260" />
			<path
   fill="#6e6f67"
   d="m 335.083,129.409 h -8.234 v -11.372 h 8.052 v 1.439 h -6.585 v 3.503 h 6.275 v 1.409 h -6.275 v 3.567 h 6.768 v 1.454 z m -7.579,-0.659 h 6.921 v -0.138 h -6.767 v -4.881 h 6.275 v -0.093 h -6.275 v -4.82 h 6.582 v -0.122 h -6.736 z"
   id="path262" />
		</g>
	</g>
<g
   id="g1263"><rect
     style="display:inline;fill:#f2f2f2;stroke-width:1.37831"
     id="rect767"
     width="166.19348"
     height="37.715931"
     x="171.54927"
     y="1.759554" /><path
     id="text491"
     style="font-style:normal;font-variant:normal;font-weight:bold;font-stretch:normal;font-size:29.3333px;font-family:Roboto;-inkscape-font-specification:'Roboto Bold';white-space:pre;shape-inside:url(#rect493);display:inline;fill:#666666;fill-opacity:1;stroke-width:1.33644"
     d="M 231.43619,5.1181419 V 34.538064 h 5.53125 v -6.335937 l 1.97266,-1.970704 5.32031,8.306641 h 6.37501 l -8.13672,-12.097656 7.46678,-8.613281 h -6.64257 l -5.2832,6.203125 -1.07227,1.376952 V 5.1181419 Z m -29.30664,0.4785159 c -0.94432,0 -1.69632,0.2735364 -2.25781,0.8222651 -0.5615,0.5359683 -0.84375,1.2193543 -0.84375,2.0488282 0,0.8167135 0.28225,1.5000999 0.84375,2.0488289 0.56149,0.535968 1.31349,0.802734 2.25781,0.802734 0.94433,0 1.69632,-0.266766 2.25781,-0.802734 0.56149,-0.548729 0.84375,-1.2321154 0.84375,-2.0488289 0,-0.8294739 -0.28226,-1.5128599 -0.84375,-2.0488282 -0.56149,-0.5487287 -1.31348,-0.8222651 -2.25781,-0.8222651 z M 178.20181,6.6689232 V 34.538064 h 17.93556 V 29.907205 H 183.96354 V 6.6689232 Z m 72.81642,0 v 4.6503908 h 8.42187 v 23.21875 h 5.74219 v -23.21875 h 8.51757 V 6.6689232 Z m -30.32032,6.7753908 c -2.48842,0 -4.47283,0.918255 -5.95312,2.75586 l -0.19142,-2.373047 h -5.18749 v 20.710937 h 5.53125 V 19.915017 c 0.76567,-1.327159 1.93429,-1.990233 3.5039,-1.990233 1.05919,0 1.8682,0.234867 2.4297,0.70703 0.57425,0.472162 0.86132,1.37206 0.86132,2.699219 v 13.207031 h 5.55078 V 21.254861 c -0.0128,-2.884018 -0.61881,-4.907096 -1.81835,-6.068359 -1.19955,-1.161264 -2.77411,-1.742188 -4.72657,-1.742188 z m 64.67968,0 c -1.99073,0 -3.52858,0.950152 -4.61328,2.851562 l -0.17186,-2.468749 h -5.22658 v 20.710937 h 5.55078 V 20.967751 c 0.65083,-1.416486 2.01565,-2.125 4.09572,-2.125 l 2.01171,0.152344 0.0566,-5.300781 c -0.43389,-0.165895 -1.00126,-0.25 -1.70314,-0.25 z m 12.88087,0 c -2.96059,0 -5.31422,1.00236 -7.0625,3.00586 -1.73552,2.003499 -2.60351,4.568831 -2.60351,7.695312 v 0.802734 c 0.0128,2.756408 0.92619,5.111998 2.73827,7.064454 1.81209,1.939694 4.32521,2.908203 7.54102,2.908203 2.01626,0 3.70006,-0.387587 5.05274,-1.166016 1.35268,-0.77843 2.3618,-1.639659 3.02538,-2.583984 l -2.73827,-3.025391 c -1.22508,1.544099 -2.88856,2.316406 -4.99414,2.316406 -1.4165,0 -2.55999,-0.407895 -3.42774,-1.224609 -0.86776,-0.829475 -1.39647,-1.913986 -1.58789,-3.253906 h 13.18749 v -2.355469 c 0,-3.062674 -0.77711,-5.525545 -2.33397,-7.388671 -1.55687,-1.863128 -3.82354,-2.794923 -6.79688,-2.794923 z m 21.19141,0 c -2.96059,0 -5.31619,1.00236 -7.06445,3.00586 -1.73552,2.003499 -2.60353,4.568831 -2.60353,7.695312 v 0.802734 c 0.0128,2.756408 0.92621,5.111998 2.73828,7.064454 1.81208,1.939694 4.32521,2.908203 7.54103,2.908203 2.01626,0 3.70199,-0.387587 5.05468,-1.166016 1.35268,-0.77843 2.35986,-1.639659 3.02344,-2.583984 l -2.73634,-3.025391 c -1.22506,1.544099 -2.89049,2.316406 -4.99609,2.316406 -1.41648,0 -2.55997,-0.407895 -3.42773,-1.224609 -0.86775,-0.829475 -1.39648,-1.913986 -1.58788,-3.253906 h 13.18944 v -2.355469 c 0,-3.062674 -0.77908,-5.525545 -2.33594,-7.388671 -1.55685,-1.863128 -3.82157,-2.794923 -6.79491,-2.794923 z M 199.3737,13.827127 v 20.710937 h 5.55078 V 13.827127 Z m 98.84764,4.078124 c 1.27612,0 2.20791,0.369229 2.79493,1.109376 0.59977,0.727385 0.91198,1.64564 0.9375,2.755859 v 0.421875 h -7.69531 c 0.19141,-1.276115 0.60609,-2.310372 1.24414,-3.101562 0.63806,-0.791191 1.54472,-1.185548 2.71874,-1.185548 z m 21.18946,0 c 1.27612,0 2.20791,0.369229 2.79492,1.109376 0.59978,0.727385 0.91199,1.64564 0.9375,2.755859 v 0.421875 h -7.6953 c 0.19141,-1.276115 0.60607,-2.310372 1.24413,-3.101562 0.63806,-0.791191 1.54473,-1.185548 2.71875,-1.185548 z" /></g></g>
</svg>
