<?xml version="1.0" encoding="UTF-8" standalone="no"?>
<svg
   viewBox="0 0 24 24"
   version="1.1"
   id="svg7784"
   sodipodi:docname="qr-code-icon.svg"
   inkscape:version="1.2.2 (b0a8486541, 2022-12-01)"
   xmlns:inkscape="http://www.inkscape.org/namespaces/inkscape"
   xmlns:sodipodi="http://sodipodi.sourceforge.net/DTD/sodipodi-0.dtd"
   xmlns="http://www.w3.org/2000/svg"
   xmlns:svg="http://www.w3.org/2000/svg">
  <defs
     id="defs7788" />
  <sodipodi:namedview
     id="namedview7786"
     pagecolor="#ffffff"
     bordercolor="#000000"
     borderopacity="0.25"
     inkscape:showpageshadow="2"
     inkscape:pageopacity="0.0"
     inkscape:pagecheckerboard="0"
     inkscape:deskcolor="#d1d1d1"
     showgrid="false"
     inkscape:zoom="20.708333"
     inkscape:cx="9.8752515"
     inkscape:cy="12.024145"
     inkscape:window-width="1920"
     inkscape:window-height="1011"
     inkscape:window-x="0"
     inkscape:window-y="0"
     inkscape:window-maximized="1"
     inkscape:current-layer="g7782" />
  <g
     id="g7782">
    <path
       d="M16 17v-1h-3v-3h3v2h2v2h-1v2h-2v2h-2v-3h2v-1h1zm5 4h-4v-2h2v-2h2v4zM3 3h8v8H3V3zm10 0h8v8h-8V3zM3 13h8v8H3v-8zm15 0h3v2h-3v-2zM6 6v2h2V6H6zm0 10v2h2v-2H6zM16 6v2h2V6h-2z"
       id="path7780"
       style="fill:#a7a7a7;fill-opacity:1" />
  </g>
</svg>
